<?xml version="1.0" encoding="UTF-8" standalone="no"?>
<svg width="37px" height="31px" viewBox="0 0 37 31" version="1.1" xmlns="http://www.w3.org/2000/svg" xmlns:xlink="http://www.w3.org/1999/xlink" xmlns:sketch="http://www.bohemiancoding.com/sketch/ns">
    <!-- Generator: Sketch 3.4.4 (17249) - http://www.bohemiancoding.com/sketch -->
    <title>logo-bright-small</title>
    <desc>Created with Sketch.</desc>
    <defs></defs>
    <g id="Small" stroke="none" stroke-width="1" fill="none" fill-rule="evenodd" sketch:type="MSPage">
        <g id="logo-bright-small" sketch:type="MSArtboardGroup" fill="#FAFAFA">
            <path d="M28.9285714,7.78571429 L22.5,19.5714286 L35.3571429,19.5714286 L28.9285714,7.78571429 Z M7.5,7.78571429 L1.07142857,19.5714286 L13.9285714,19.5714286 L7.5,7.78571429 Z M21.2444196,4.57142857 C21.0881689,5.01785938 20.8342652,5.41685092 20.4827009,5.76841518 C20.1311366,6.11997944 19.7321451,6.37388315 19.2857143,6.53013393 L19.2857143,28.1428571 L29.4642857,28.1428571 C29.6205365,28.1428571 29.7488834,28.1930799 29.8493304,28.2935268 C29.9497773,28.3939737 30,28.5223206 30,28.6785714 L30,29.75 C30,29.9062508 29.9497773,30.0345977 29.8493304,30.1350446 C29.7488834,30.2354916 29.6205365,30.2857143 29.4642857,30.2857143 L6.96428571,30.2857143 C6.80803493,30.2857143 6.679688,30.2354916 6.57924107,30.1350446 C6.47879414,30.0345977 6.42857143,29.9062508 6.42857143,29.75 L6.42857143,28.6785714 C6.42857143,28.5223206 6.47879414,28.3939737 6.57924107,28.2935268 C6.679688,28.1930799 6.80803493,28.1428571 6.96428571,28.1428571 L17.1428571,28.1428571 L17.1428571,6.53013393 C16.6964263,6.37388315 16.2974348,6.11997944 15.9458705,5.76841518 C15.5943063,5.41685092 15.3404026,5.01785938 15.1841518,4.57142857 L6.96428571,4.57142857 C6.80803493,4.57142857 6.679688,4.52120586 6.57924107,4.42075893 C6.47879414,4.320312 6.42857143,4.19196507 6.42857143,4.03571429 L6.42857143,2.96428571 C6.42857143,2.80803493 6.47879414,2.679688 6.57924107,2.57924107 C6.679688,2.47879414 6.80803493,2.42857143 6.96428571,2.42857143 L15.1841518,2.42857143 C15.418528,1.79240753 15.8091491,1.27622966 16.3560268,0.880022321 C16.9029045,0.483814983 17.522318,0.285714286 18.2142857,0.285714286 C18.9062535,0.285714286 19.5256669,0.483814983 20.0725446,0.880022321 C20.6194224,1.27622966 21.0100435,1.79240753 21.2444196,2.42857143 L29.4642857,2.42857143 C29.6205365,2.42857143 29.7488834,2.47879414 29.8493304,2.57924107 C29.9497773,2.679688 30,2.80803493 30,2.96428571 L30,4.03571429 C30,4.19196507 29.9497773,4.320312 29.8493304,4.42075893 C29.7488834,4.52120586 29.6205365,4.57142857 29.4642857,4.57142857 L21.2444196,4.57142857 Z M18.2142857,4.83928571 C18.5825911,4.83928571 18.8978782,4.70814863 19.1601562,4.44587054 C19.4224343,4.18359244 19.5535714,3.86830541 19.5535714,3.5 C19.5535714,3.13169459 19.4224343,2.81640756 19.1601562,2.55412946 C18.8978782,2.29185137 18.5825911,2.16071429 18.2142857,2.16071429 C17.8459803,2.16071429 17.5306933,2.29185137 17.2684152,2.55412946 C17.0061371,2.81640756 16.875,3.13169459 16.875,3.5 C16.875,3.86830541 17.0061371,4.18359244 17.2684152,4.44587054 C17.5306933,4.70814863 17.8459803,4.83928571 18.2142857,4.83928571 L18.2142857,4.83928571 Z M36.4285714,19.5714286 C36.4285714,20.3861648 36.1690874,21.1171843 35.6501116,21.7645089 C35.1311358,22.4118336 34.4754504,22.919641 33.6830357,23.2879464 C32.890621,23.6562518 32.0842675,23.9324768 31.2639509,24.1166295 C30.4436343,24.3007822 29.6651823,24.3928571 28.9285714,24.3928571 C28.1919606,24.3928571 27.4135086,24.3007822 26.593192,24.1166295 C25.7728754,23.9324768 24.9665218,23.6562518 24.1741071,23.2879464 C23.3816925,22.919641 22.7260071,22.4118336 22.2070313,21.7645089 C21.6880554,21.1171843 21.4285714,20.3861648 21.4285714,19.5714286 C21.4285714,19.4486601 21.623882,18.9966557 22.0145089,18.2154018 C22.4051359,17.4341479 22.9185236,16.4603853 23.5546875,15.2940848 C24.1908514,14.1277843 24.7879436,13.0368354 25.3459821,12.0212054 C25.9040206,11.0055753 26.4732114,9.97879983 27.0535714,8.94084821 C27.6339315,7.9028966 27.9464283,7.34486646 27.9910714,7.26674107 C28.1919653,6.89843566 28.5044622,6.71428571 28.9285714,6.71428571 C29.3526807,6.71428571 29.6651776,6.89843566 29.8660714,7.26674107 C29.9107145,7.34486646 30.2232114,7.9028966 30.8035714,8.94084821 C31.3839315,9.97879983 31.9531222,11.0055753 32.5111607,12.0212054 C33.0691992,13.0368354 33.6662915,14.1277843 34.3024554,15.2940848 C34.9386193,16.4603853 35.452007,17.4341479 35.8426339,18.2154018 C36.2332609,18.9966557 36.4285714,19.4486601 36.4285714,19.5714286 L36.4285714,19.5714286 Z M15,19.5714286 C15,20.3861648 14.740516,21.1171843 14.2215402,21.7645089 C13.7025644,22.4118336 13.046879,22.919641 12.2544643,23.2879464 C11.4620496,23.6562518 10.6556961,23.9324768 9.83537946,24.1166295 C9.01506286,24.3007822 8.23661083,24.3928571 7.5,24.3928571 C6.76338917,24.3928571 5.98493714,24.3007822 5.16462054,24.1166295 C4.34430393,23.9324768 3.53795039,23.6562518 2.74553571,23.2879464 C1.95312104,22.919641 1.29743563,22.4118336 0.778459821,21.7645089 C0.259484012,21.1171843 0,20.3861648 0,19.5714286 C0,19.4486601 0.195310547,18.9966557 0.5859375,18.2154018 C0.976564453,17.4341479 1.48995218,16.4603853 2.12611607,15.2940848 C2.76227997,14.1277843 3.35937221,13.0368354 3.91741071,12.0212054 C4.47544922,11.0055753 5.04463996,9.97879983 5.625,8.94084821 C6.20536004,7.9028966 6.51785692,7.34486646 6.5625,7.26674107 C6.76339386,6.89843566 7.07589074,6.71428571 7.5,6.71428571 C7.92410926,6.71428571 8.23660614,6.89843566 8.4375,7.26674107 C8.48214308,7.34486646 8.79463996,7.9028966 9.375,8.94084821 C9.95536004,9.97879983 10.5245508,11.0055753 11.0825893,12.0212054 C11.6406278,13.0368354 12.23772,14.1277843 12.8738839,15.2940848 C13.5100478,16.4603853 14.0234355,17.4341479 14.4140625,18.2154018 C14.8046895,18.9966557 15,19.4486601 15,19.5714286 L15,19.5714286 Z" id="" sketch:type="MSShapeGroup"></path>
        </g>
    </g>
</svg>