<svg id="ocms_education-logo.svg" xmlns="http://www.w3.org/2000/svg" width="59" height="53" viewBox="0 0 59 53">
  <defs>
    <style>
      .cls-1 {
        fill: #252525;
        fill-rule: evenodd;
      }
    </style>
  </defs>
  <path id="Group_Users_With_Wreath_Border_Silhouette._Attribute_as_Freepik_from_Flaticon.com" data-name="Group Users With Wreath Border Silhouette. Attribute as Freepik from Flaticon.com" class="cls-1" d="M15.653,52.778S18.548,47.3,23,49.514C23,49.514,22.472,54.066,15.653,52.778Zm5.865-12.023s-2.889,5.479,1.363,8.091C22.88,48.848,26.3,45.9,21.517,40.755ZM18.9,38.867s-3.911,4.773-.262,8.206C18.631,47.073,22.567,44.9,18.9,38.867Zm-2.813-2.443s-4.282,4.419-.928,8.154C15.154,44.579,19.252,42.75,16.082,36.425Zm-2.062-2.986s-4.862,3.731-2.073,7.927C11.951,41.366,16.26,40.166,14.019,33.439Zm-1.057-3.472s-5.589,2.45-3.848,7.2C9.108,37.166,13.577,37.051,12.962,29.967Zm-0.645-4.146S6.482,27.554,7.648,32.49C7.648,32.49,12.1,32.926,12.317,25.822Zm0.515-3.658s-5.811.21-5.85,5.067C6.981,27.234,11.008,28.706,12.832,22.164Zm0.531-3.846s-5.7-.333-6.176,4.422C7.187,22.74,11,24.555,13.362,18.318Zm2.055-3.951s-5.7-1.124-6.8,3.6C8.618,17.967,12.219,20.324,15.418,14.366ZM18.309,11.1s-5.323-2.121-7.19,2.246C11.116,13.35,14.187,16.279,18.309,11.1Zm3.5-2.412s-4.439-2.979-6.969.621C14.842,9.311,17.088,12.581,21.808,8.69ZM11.406,49.7s4.093-4.607,7.9-1.355C19.305,48.345,17.726,52.633,11.406,49.7ZM7.517,46.687S12,42.481,15.5,46.071C15.5,46.071,13.547,50.2,7.517,46.687ZM4.656,43.01s4.921-3.653,8,.328C12.657,43.337,10.257,47.2,4.656,43.01Zm-2.435-4.3s5.447-2.761,7.833,1.694C10.054,40.4,7.058,43.8,2.221,38.709ZM0.733,34.427s5.719-2.118,7.6,2.582C8.335,37.009,4.985,40.044.733,34.427ZM0,29.745s5.99-1.044,7.034,3.92C7.028,33.664,3.209,36.041,0,29.745Zm0.1-4.831s6.074,0.074,6.239,5.152C6.338,30.065,2.16,31.7.1,24.913Zm0.655-4.608s6,0.982,5.437,6.022C6.189,26.33,1.825,27.331.754,20.305ZM1.918,16s5.874,1.58,4.834,6.539C6.753,22.544,2.319,23.1,1.918,16Zm1.922-4.08s5.569,2.479,3.8,7.224C7.641,19.146,3.175,19,3.84,11.923ZM6.562,7.889s5.111,3.373,2.615,7.762C9.18,15.651,4.794,14.765,6.562,7.889ZM9.873,4.564s4.5,4.195,1.33,8.094C11.2,12.662,7.021,11.045,9.873,4.564Zm4.319-2.676s3.243,5.268-.82,8.168C13.372,10.056,9.761,7.356,14.192,1.888ZM18.961,0s1.914,5.911-2.707,7.722C16.251,7.724,13.377,4.216,18.961,0Zm6.333,3.135s-2.275,5.832-6.985,4.138C18.309,7.275,18.318,2.657,25.294,3.137Zm18.054,49.64S40.453,47.3,36,49.514C36,49.514,36.528,54.066,43.348,52.778ZM37.482,40.755s2.888,5.479-1.364,8.091C36.118,48.848,32.694,45.9,37.482,40.755ZM40.1,38.867s3.906,4.773.262,8.206C40.367,47.073,36.433,44.9,40.1,38.867Zm2.809-2.443s4.282,4.419.93,8.154C43.844,44.579,39.742,42.75,42.913,36.425Zm2.065-2.986s4.864,3.731,2.07,7.927C47.048,41.366,42.737,40.166,44.978,33.439Zm1.059-3.472s5.589,2.45,3.848,7.2C49.886,37.166,45.417,37.051,46.037,29.967Zm0.644-4.146s5.837,1.732,4.669,6.669C51.35,32.49,46.9,32.926,46.681,25.822Zm-0.515-3.658s5.809,0.21,5.846,5.067C52.017,27.234,47.988,28.706,46.166,22.164Zm-0.534-3.846s5.708-.333,6.176,4.422C51.812,22.74,48,24.555,45.632,18.318Zm-2.055-3.951s5.708-1.124,6.805,3.6C50.381,17.967,46.776,20.324,43.576,14.366ZM40.691,11.1s5.322-2.121,7.191,2.246C47.883,13.35,44.807,16.279,40.691,11.1ZM37.186,8.69s4.442-2.979,6.97.621C44.158,9.311,41.907,12.581,37.186,8.69ZM47.587,49.7s-4.092-4.607-7.892-1.355C39.695,48.345,41.268,52.633,47.587,49.7Zm3.9-3.012S47,42.481,43.5,46.071C43.5,46.071,45.451,50.2,51.483,46.687Zm2.861-3.677s-4.921-3.653-8,.328C46.342,43.337,48.741,47.2,54.345,43.01Zm2.432-4.3s-5.446-2.761-7.835,1.694C48.941,40.4,51.936,43.8,56.777,38.709Zm1.483-4.281s-5.713-2.118-7.6,2.582C50.663,37.009,54.011,40.044,58.26,34.427ZM59,29.745s-5.99-1.044-7.034,3.92C51.969,33.664,55.785,36.041,59,29.745Zm-0.1-4.831s-6.076.074-6.238,5.152C52.661,30.065,56.834,31.7,58.9,24.913Zm-0.653-4.608s-6,.982-5.439,6.022C52.809,26.33,57.172,27.331,58.245,20.305ZM57.082,16s-5.88,1.58-4.836,6.539C52.242,22.544,56.681,23.1,57.082,16Zm-1.922-4.08s-5.575,2.479-3.805,7.224C51.355,19.146,55.818,19,55.16,11.923ZM52.437,7.889s-5.112,3.373-2.611,7.762C49.819,15.651,54.2,14.765,52.437,7.889ZM49.123,4.564s-4.5,4.195-1.326,8.094C47.8,12.662,51.974,11.045,49.123,4.564ZM44.8,1.888s-3.243,5.268.825,8.168C45.622,10.056,49.237,7.356,44.8,1.888ZM40.033,0s-1.912,5.911,2.711,7.722C42.747,7.724,45.622,4.216,40.033,0ZM33.705,3.137s2.275,5.832,6.986,4.138C40.691,7.275,40.677,2.657,33.705,3.137Z"/>
  <path id="Temple._Attribute_as_Freepik_from_Flaticon.com" data-name="Temple. Attribute as Freepik from Flaticon.com" class="cls-1" d="M33.14,29.126V20.318h-2.91v8.807h2.91Zm4.369,0V20.318H34.6v8.807h2.912ZM38.963,18.59L29.5,12.98,20.039,18.59s-0.653.593,0,1H38.963A0.647,0.647,0,0,0,38.963,18.59ZM28.773,29.126V20.318H25.861v8.807h2.913Zm-4.368,0V20.318H21.494v8.807H24.4Zm13.921,1.037-17.416.049-1.6,2.108v1.212H39.69V32.319Z"/>
</svg>
