<svg id="Layer_1" data-name="Layer 1" xmlns="http://www.w3.org/2000/svg" viewBox="0 0 137 54"><defs><style>.cls-1{fill:#00599c;}</style></defs><title>EITC_logo</title><path class="cls-1" d="M2.76,49.16a2.27,2.27,0,0,0,.46,1.4,1.59,1.59,0,0,0,1.36.58,1.55,1.55,0,0,0,1.48-.82c.19-.32.25-.44.51-.44s.62.15.62.5a.35.35,0,0,1,0,.12,1.59,1.59,0,0,1-.38.63A2.84,2.84,0,0,1,4.58,52a2.7,2.7,0,0,1-2.15-.83,3.5,3.5,0,0,1-.78-2.31c0-1.49.8-3.23,2.9-3.23a3.32,3.32,0,0,1,.77.08,2.28,2.28,0,0,1,1.36.89,3.55,3.55,0,0,1,.59,2,.48.48,0,0,1-.53.53Zm3.39-.89a1.57,1.57,0,0,0-1.6-1.64A1.68,1.68,0,0,0,3.41,47a2.17,2.17,0,0,0-.64,1.25Z"/><path class="cls-1" d="M13.11,51.53a.44.44,0,0,1-.47.47.47.47,0,0,1-.45-.26,1.42,1.42,0,0,1,0-.57,2.33,2.33,0,0,1-1.9.87,1.81,1.81,0,0,1-2-1.88c0-1.41,1.16-1.63,1.8-1.76l1-.21c.4-.08.61-.13.72-.17s.33-.17.33-.46c0-1-1-1-1.23-1-1,0-1.21.51-1.31.83,0,.17-.09.38-.5.38s-.56-.25-.56-.46a1.54,1.54,0,0,1,.25-.69,2.39,2.39,0,0,1,2.12-.93,2.34,2.34,0,0,1,1.83.64,2.41,2.41,0,0,1,.4,1.66Zm-2.42-2.4a4.09,4.09,0,0,0-.6.15.91.91,0,0,0-.71.9,1,1,0,0,0,1.1,1,1.66,1.66,0,0,0,1.3-.63,3.05,3.05,0,0,0,.33-1.77,3.56,3.56,0,0,1-.8.22Z"/><path class="cls-1" d="M15.78,46.84a1.69,1.69,0,0,1,1.6-1.11c.13,0,.65,0,.65.53a.49.49,0,0,1-.5.51,2.27,2.27,0,0,0-.92.3,2.23,2.23,0,0,0-.78,2.08V51.5c0,.19,0,.5-.54.5s-.53-.33-.53-.5V46.23a.51.51,0,0,1,1,0Z"/><path class="cls-1" d="M18.94,46.25a.46.46,0,0,1,.26-.46.72.72,0,0,1,.54,0c.26.13.26.31.26.78a2.17,2.17,0,0,1,1.9-.89,2,2,0,0,1,1.63.67A2.69,2.69,0,0,1,24,48.12v3.35a.49.49,0,0,1-.54.53.81.81,0,0,1-.28-.06.48.48,0,0,1-.26-.47V48.68c0-.63,0-.77,0-.88a1.07,1.07,0,0,0-1.17-1.18A1.57,1.57,0,0,0,20.09,48a4.1,4.1,0,0,0-.06.93v2.57a.49.49,0,0,1-.54.53.81.81,0,0,1-.28-.06.47.47,0,0,1-.26-.47Z"/><path class="cls-1" d="M26.4,49.16a2.27,2.27,0,0,0,.46,1.4,1.59,1.59,0,0,0,1.36.58,1.55,1.55,0,0,0,1.48-.82c.19-.32.25-.44.51-.44s.61.15.61.5a.36.36,0,0,1,0,.12,1.59,1.59,0,0,1-.38.63,2.84,2.84,0,0,1-2.21.92,2.7,2.7,0,0,1-2.15-.83,3.49,3.49,0,0,1-.78-2.31,2.93,2.93,0,0,1,2.9-3.23,3.32,3.32,0,0,1,.77.08,2.28,2.28,0,0,1,1.36.89,3.55,3.55,0,0,1,.59,2,.48.48,0,0,1-.53.53Zm3.39-.89a1.57,1.57,0,0,0-1.6-1.64,1.68,1.68,0,0,0-1.15.39,2.17,2.17,0,0,0-.64,1.25Z"/><path class="cls-1" d="M37.5,51.48A.48.48,0,0,1,37,52a.5.5,0,0,1-.47-.27,1.18,1.18,0,0,1,0-.53,2.15,2.15,0,0,1-.5.46,2.45,2.45,0,0,1-1.4.39c-1.87,0-2.63-1.55-2.63-3.22,0-1.5.66-3.15,2.55-3.15a2.27,2.27,0,0,1,2,.91V44a.7.7,0,0,1,.06-.27.5.5,0,0,1,.46-.26.59.59,0,0,1,.27.06.47.47,0,0,1,.26.47Zm-1.4-4.13a1.53,1.53,0,0,0-1.41-.75,1.56,1.56,0,0,0-1.56,1.45,4.77,4.77,0,0,0-.07.82c0,1,.26,2.27,1.64,2.27a1.64,1.64,0,0,0,.8-.18c.95-.49.95-1.81.95-2.09A2.87,2.87,0,0,0,36.1,47.35Z"/><path class="cls-1" d="M43.11,43.51a.64.64,0,0,1,.66.67.66.66,0,0,1-1.32,0A.64.64,0,0,1,43.11,43.51Zm.54,8a.6.6,0,0,1-.06.26.49.49,0,0,1-.47.27.51.51,0,0,1-.54-.53V46.25a.54.54,0,0,1,1.08,0Z"/><path class="cls-1" d="M45.29,46.25a.46.46,0,0,1,.26-.46.72.72,0,0,1,.54,0c.26.13.26.31.26.78a2.17,2.17,0,0,1,1.9-.89,2,2,0,0,1,1.63.67,2.69,2.69,0,0,1,.41,1.76v3.35a.49.49,0,0,1-.54.53.81.81,0,0,1-.28-.06.48.48,0,0,1-.26-.47V48.68c0-.63,0-.77,0-.88A1.07,1.07,0,0,0,48,46.62,1.57,1.57,0,0,0,46.44,48a4.11,4.11,0,0,0-.06.93v2.57a.49.49,0,0,1-.54.53.81.81,0,0,1-.28-.06.47.47,0,0,1-.26-.47Z"/><path class="cls-1" d="M56.07,50c.08-.22.19-.46.51-.46.14,0,.57.08.57.5a1.49,1.49,0,0,1-.25.71A2.47,2.47,0,0,1,54.49,52c-2.15,0-2.85-1.71-2.85-3.19a4.11,4.11,0,0,1,.21-1.37,2.64,2.64,0,0,1,2.7-1.8,2.31,2.31,0,0,1,2.23,1.1c.25.39.25.53.25.61a.54.54,0,0,1-.58.52c-.33,0-.44-.22-.57-.5a1.41,1.41,0,0,0-1.37-.84c-1.25,0-1.74,1.08-1.74,2.22s.31,2.32,1.74,2.32A1.56,1.56,0,0,0,56.07,50Z"/><path class="cls-1" d="M62.87,51.18A2.77,2.77,0,0,1,60.7,52a2.71,2.71,0,0,1-2.14-.83,3.44,3.44,0,0,1-.76-2.33,3.47,3.47,0,0,1,.73-2.33,2.89,2.89,0,0,1,2.22-.89c1.74,0,2.9,1.11,2.9,3.13A3.52,3.52,0,0,1,62.87,51.18Zm-.78-.65a2.76,2.76,0,0,0,.44-1.66c0-1.15-.38-2.29-1.82-2.29a1.62,1.62,0,0,0-1.4.67,3,3,0,0,0-.4,1.63,2.81,2.81,0,0,0,.44,1.68,1.73,1.73,0,0,0,1.37.6A1.69,1.69,0,0,0,62.09,50.53Z"/><path class="cls-1" d="M65,46.24a.44.44,0,0,1,.26-.45.67.67,0,0,1,.57,0c.25.12.25.31.25.71a2,2,0,0,1,1.73-.83,2,2,0,0,1,1,.24,1.52,1.52,0,0,1,.67.72,2.33,2.33,0,0,1,1.92-1A2,2,0,0,1,73,46.3a2.32,2.32,0,0,1,.43,1.62v3.54a.5.5,0,0,1-.56.54.55.55,0,0,1-.27-.07.46.46,0,0,1-.27-.47V48.81c0-.35,0-.69,0-.87,0-.39,0-1.3-1.11-1.3a1.4,1.4,0,0,0-1.21.63,2.1,2.1,0,0,0-.26,1.28v2.93a.46.46,0,0,1-.26.46.61.61,0,0,1-.28.07.63.63,0,0,1-.28-.07.46.46,0,0,1-.26-.46v-3a6.12,6.12,0,0,0,0-.84,1,1,0,0,0-1.08-1,1.35,1.35,0,0,0-1.21.63,2.58,2.58,0,0,0-.28,1.5v2.71a.69.69,0,0,1-.06.26.51.51,0,0,1-.48.27.5.5,0,0,1-.56-.53Z"/><path class="cls-1" d="M75.91,49.16a2.27,2.27,0,0,0,.46,1.4,1.59,1.59,0,0,0,1.36.58,1.55,1.55,0,0,0,1.48-.82c.19-.32.25-.44.51-.44s.61.15.61.5a.36.36,0,0,1,0,.12,1.58,1.58,0,0,1-.38.63,2.84,2.84,0,0,1-2.21.92,2.7,2.7,0,0,1-2.15-.83,3.5,3.5,0,0,1-.78-2.31,2.93,2.93,0,0,1,2.9-3.23,3.32,3.32,0,0,1,.77.08,2.28,2.28,0,0,1,1.36.89,3.55,3.55,0,0,1,.59,2,.48.48,0,0,1-.53.53Zm3.39-.89a1.57,1.57,0,0,0-1.6-1.64,1.68,1.68,0,0,0-1.15.39,2.17,2.17,0,0,0-.64,1.25Z"/><path class="cls-1" d="M85.27,46.73h-.63a.42.42,0,0,1-.45-.46.41.41,0,0,1,.45-.46h.64V44.42a.47.47,0,0,1,.53-.51c.51,0,.54.34.54.51V45.8h.73a.41.41,0,0,1,.45.46.42.42,0,0,1-.45.46h-.73v3a3.63,3.63,0,0,0,0,.93c.08.34.31.4.63.43s.58,0,.58.45-.38.46-.7.46c-1.64,0-1.64-.89-1.64-1.81Z"/><path class="cls-1" d="M93.16,51.53a.44.44,0,0,1-.47.47.47.47,0,0,1-.45-.26,1.4,1.4,0,0,1,0-.57,2.33,2.33,0,0,1-1.9.87,1.81,1.81,0,0,1-2-1.88c0-1.41,1.16-1.63,1.8-1.76l1-.21c.4-.08.62-.13.72-.17s.33-.17.33-.46c0-1-1-1-1.23-1-1,0-1.21.51-1.31.83,0,.17-.09.38-.5.38s-.56-.25-.56-.46a1.53,1.53,0,0,1,.25-.69,2.39,2.39,0,0,1,2.12-.93,2.34,2.34,0,0,1,1.83.64,2.4,2.4,0,0,1,.4,1.66Zm-2.42-2.4a4.1,4.1,0,0,0-.6.15.91.91,0,0,0-.71.9,1,1,0,0,0,1.1,1,1.66,1.66,0,0,0,1.3-.63,3.06,3.06,0,0,0,.33-1.77,3.58,3.58,0,0,1-.8.22Z"/><path class="cls-1" d="M97.17,48.82l1.64,2.31a.48.48,0,0,1,.11.32.57.57,0,0,1-.59.56.48.48,0,0,1-.43-.26l-1.36-2.06-1.31,2.07a.46.46,0,0,1-.44.25.55.55,0,0,1-.57-.52.46.46,0,0,1,.11-.31l1.61-2.29L94.35,46.6a.55.55,0,0,1-.11-.32.57.57,0,0,1,.58-.54.49.49,0,0,1,.45.26l1.3,2,1.3-2a.46.46,0,0,1,.41-.25.55.55,0,0,1,.56.52.48.48,0,0,1-.11.3Z"/><path class="cls-1" d="M107.56,50c.08-.22.19-.46.51-.46.14,0,.57.08.57.5a1.49,1.49,0,0,1-.25.71A2.47,2.47,0,0,1,106,52c-2.15,0-2.85-1.71-2.85-3.19a4.12,4.12,0,0,1,.21-1.37,2.64,2.64,0,0,1,2.7-1.8,2.31,2.31,0,0,1,2.23,1.1c.25.39.25.53.25.61a.54.54,0,0,1-.58.52c-.33,0-.44-.22-.57-.5a1.41,1.41,0,0,0-1.37-.84c-1.25,0-1.74,1.08-1.74,2.22s.31,2.32,1.74,2.32A1.56,1.56,0,0,0,107.56,50Z"/><path class="cls-1" d="M110.62,46.84a1.69,1.69,0,0,1,1.6-1.11c.13,0,.65,0,.65.53a.49.49,0,0,1-.5.51,2.27,2.27,0,0,0-.92.3,2.23,2.23,0,0,0-.78,2.08V51.5c0,.19,0,.5-.54.5s-.53-.33-.53-.5V46.23a.51.51,0,0,1,1,0Z"/><path class="cls-1" d="M114.36,49.16a2.27,2.27,0,0,0,.46,1.4,1.59,1.59,0,0,0,1.36.58,1.55,1.55,0,0,0,1.48-.82c.19-.32.25-.44.51-.44s.61.15.61.5a.37.37,0,0,1,0,.12,1.59,1.59,0,0,1-.38.63,2.84,2.84,0,0,1-2.21.92,2.7,2.7,0,0,1-2.15-.83,3.49,3.49,0,0,1-.78-2.31c0-1.49.8-3.23,2.9-3.23a3.32,3.32,0,0,1,.77.08,2.28,2.28,0,0,1,1.36.89,3.55,3.55,0,0,1,.59,2,.48.48,0,0,1-.53.53Zm3.39-.89a1.57,1.57,0,0,0-1.6-1.64A1.68,1.68,0,0,0,115,47a2.17,2.17,0,0,0-.64,1.25Z"/><path class="cls-1" d="M125.45,51.48a.48.48,0,0,1-.53.52.5.5,0,0,1-.47-.27,1.17,1.17,0,0,1,0-.53,2.15,2.15,0,0,1-.5.46,2.45,2.45,0,0,1-1.4.39c-1.87,0-2.62-1.55-2.62-3.22,0-1.5.66-3.15,2.55-3.15a2.27,2.27,0,0,1,2,.91V44a.7.7,0,0,1,.06-.27.5.5,0,0,1,.46-.26.58.58,0,0,1,.27.06.47.47,0,0,1,.26.47Zm-1.4-4.13a1.53,1.53,0,0,0-1.41-.75,1.56,1.56,0,0,0-1.56,1.45,4.77,4.77,0,0,0-.07.82c0,1,.26,2.27,1.64,2.27a1.64,1.64,0,0,0,.8-.18c.95-.49.95-1.81.95-2.09A2.86,2.86,0,0,0,124.05,47.35Z"/><path class="cls-1" d="M127.61,43.51a.64.64,0,0,1,.66.67.66.66,0,0,1-1.32,0A.64.64,0,0,1,127.61,43.51Zm.54,8a.6.6,0,0,1-.06.26.49.49,0,0,1-.47.27.51.51,0,0,1-.54-.53V46.25a.54.54,0,0,1,1.08,0Z"/><path class="cls-1" d="M129.87,46.73h-.63a.42.42,0,0,1-.45-.46.41.41,0,0,1,.45-.46h.64V44.42a.47.47,0,0,1,.53-.51c.51,0,.54.34.54.51V45.8h.73a.41.41,0,0,1,.45.46.42.42,0,0,1-.45.46H131v3a3.6,3.6,0,0,0,0,.93c.08.34.31.4.63.43s.58,0,.58.45-.38.46-.7.46c-1.64,0-1.64-.89-1.64-1.81Z"/><path class="cls-1" d="M46.43,28.05A11.24,11.24,0,0,0,48.7,35c2,2.45,5,2.86,7.37,2.86a7.67,7.67,0,0,0,7.31-4c.93-1.58,1.23-2.16,2.51-2.16s3,.76,3,2.45a1.81,1.81,0,0,1-.06.58A7.87,7.87,0,0,1,67,37.76a14,14,0,0,1-10.93,4.56c-3.8,0-8.31-.76-11.29-4.09a17.26,17.26,0,0,1-3.86-11.4c0-7.36,4.63-16,15-16a16.46,16.46,0,0,1,3.8.41,11.29,11.29,0,0,1,6.72,4.38,17.54,17.54,0,0,1,2.92,9.76,2.38,2.38,0,0,1-2.63,2.63Zm17.43-4.38c-.23-3.86-2.34-8.12-7.89-8.12-1.23,0-4.28.12-6.32,1.93a10.71,10.71,0,0,0-3.16,6.19Z"/><path class="cls-1" d="M75.25,1.15a3.13,3.13,0,0,1,3.22,3.28,3.22,3.22,0,0,1-6.45,0A3.1,3.1,0,0,1,75.25,1.15ZM78,39.74a3,3,0,0,1-.3,1.31,2.48,2.48,0,0,1-2.37,1.37,2.54,2.54,0,0,1-2.73-2.67V13.4a2.7,2.7,0,0,1,5.4,0Z"/><path class="cls-1" d="M86.26,15.49H83.07a2.14,2.14,0,0,1-2.29-2.35,2.1,2.1,0,0,1,2.29-2.35h3.25v-7A2.41,2.41,0,0,1,89,1.16c2.59,0,2.77,1.75,2.77,2.59v7h3.73a2.08,2.08,0,0,1,2.29,2.35,2.14,2.14,0,0,1-2.29,2.35H91.81V30.8c0,3.61.06,4,.24,4.76.42,1.75,1.57,2,3.19,2.17,1.45.06,3,.18,3,2.29s-1.93,2.35-3.55,2.35c-8.37,0-8.37-4.52-8.37-9.22Z"/><path class="cls-1" d="M130,10.79H102.87A2.26,2.26,0,0,0,100.61,13V40.15a2.26,2.26,0,0,0,2.26,2.26H130a2.26,2.26,0,0,0,2.26-2.26V13A2.26,2.26,0,0,0,130,10.79ZM126.89,36a12.93,12.93,0,1,1,0-18.67,1.88,1.88,0,0,1-2.6,2.72,9.17,9.17,0,1,0,0,13.25A1.88,1.88,0,0,1,126.89,36Z"/><path class="cls-1" d="M36.83,20.64c-.45-3.76-.71-4.74-1.22-5.58-.41-.69-4.61-2.6-10.68-3.83-2.5,2.66-2.5,3.72-2.56,4.16s.83,1.57,1.73,2.73c1.66,2.14,2.1,2.53,2.35,3.18.48,1.22-.32,4-.89,6.5,0,0-1.49-5.37-2.18-8.84a.73.73,0,0,1,.06-.51c-3.75-.36-6.26-.53-6.72,1.42-1.72,0-2.51.49-2.68.78-.45.73.09,2.24.37,3,.24-.59,1.78-.5,2.28-.47.22,0,.22.14.28.27l0,7.28H12.59L8.76,40.9a13.4,13.4,0,0,0,4.79,1.5c1.16,0,4-1.49,4.41-1.5s3.27,1.5,4.43,1.5a12.24,12.24,0,0,0,4.79-1.5L23.33,30.71H18.92V23.82c-.08-.46-.28-.61-.45-.64h2.25c-.33-1.3-.77-2.21-1.4-2.28a2.92,2.92,0,0,1,.58-.59H18.16c.19-.9,2.43-.58,3.38-.51,1,4.89,2.87,11.45,2.95,11.57a10.84,10.84,0,0,0,1.85.72A44.22,44.22,0,0,0,28.71,23c1.15.39.69,1.92.45,3.45a91.29,91.29,0,0,1-2.63,11.75,7,7,0,0,0,2-.58,14.84,14.84,0,0,0,1.17-3,45.75,45.75,0,0,0,1.71-9.74c0-.52-.44-1-1.21-1.43a12.13,12.13,0,0,0,.58-1.09c.24-.56.51-1.5.51-1.5.45.13.85.33.9.78.25,2.07.12,2.27-.14,6.1-.07,1.22-.51,3.64-1,6.17-.83,4.65-1.61,6.64-1.61,7.34a9.59,9.59,0,0,0,2.25-.84,28.8,28.8,0,0,0,1.65-5.85c.27-1.44.47-2.87.7-4.35a35.11,35.11,0,0,0,.39-5.66c0-2.46.29-2.48-1.53-3.45a5.92,5.92,0,0,0,.37-3.69c-.31-.72-.7-.72-2.31-.59.58.53.4,1.63.27,2.28-.32-.26-.19-.71-1.92-.64-.26-2.8-.78-3.11-.84-3.2-.25-.32-1.67-.17-2.1,0A5,5,0,0,1,27,18.5c-.19-.26-2.62-3-2.43-3.51a4.91,4.91,0,0,1,1.09-1.62c2.88.51,7.81,2.33,8.06,2.85a8.12,8.12,0,0,1,.76,2.46A55.91,55.91,0,0,1,35,30a51.9,51.9,0,0,1-1,9.29,6.68,6.68,0,0,0,2.51-1.95c.39-1,.57-4.54.7-7.79A68.69,68.69,0,0,0,36.83,20.64ZM13.54,40.26c-.87,0-2.23-.14-2.23-.14l2.23-6.42,2.06,6.42S14.34,40.26,13.54,40.26Zm11.07-.14s-1.36.13-2.23.14-2.05-.14-2.06-.14l2.06-6.42Zm-5.69-5V32.66h1.92l-2.88,8-2.87-8H17v1.76s0,.16.06.19c.26.13.32.13.31.12Zm.25-13H15.85c-.25-.78,0-1,.7-1C17.9,21,19.05,21,19.17,22.13Zm9.34-3.51c1.22-.19.65,1.95.33,2.79a9.93,9.93,0,0,0-1.53-2.59A7.27,7.27,0,0,1,28.51,18.63Z"/><path class="cls-1" d="M16.43,11.55a11.79,11.79,0,0,1,4.6-.66,9.1,9.1,0,0,1-3.77,4.43,33.88,33.88,0,0,1-4,1.17,15.6,15.6,0,0,0-5,2.26A3.86,3.86,0,0,0,6.82,22.4a12.56,12.56,0,0,1,4.68-2.87c-.45,1.5-.38,2.72-.9,4.1-.33.88-2.81,3-3.51,4.08A5,5,0,0,0,6.51,31s.64-.83,1.08-1.31a23.68,23.68,0,0,1,3.07-2.46,30.87,30.87,0,0,1-.7,5.33C9.65,33.65,7.59,35.78,7,36.37c0,0,.59,1.56,1,2.59a14,14,0,0,1,.45,1.56c-.71-.26-4-1.62-5.07-2.67s-1.23-2.52-1.47-4a27,27,0,0,1-.25-3.84,18.12,18.12,0,0,1,2.62,2.21,25.31,25.31,0,0,1,1.67,2.15c-.07-.46-.16-.86-.19-1.17-.1-.86.46-1.5.37-1.7,0,0-.06-.19-.31-.72-.5-1-2.89-2.67-3.52-3.76-.28-.44-.9-1.43-.51-6.5,0,0,1.9,2,2.88,3.24a19.15,19.15,0,0,1,1.28,2.09,4.66,4.66,0,0,1,.45-2.68A4.3,4.3,0,0,0,6,22.07c-.9-1.56-3-2.43-3.32-4.29-.25-1.44.38-2.6,3.69-3.9.65,2.27.27,4.22.2,6,1.6-1.36,1.4-4.8,2.18-6a3.24,3.24,0,0,1,1.84-1.43,10.36,10.36,0,0,1,2.88-.9,25,25,0,0,1-1.09,3.24A5.57,5.57,0,0,1,11,16.61a4.85,4.85,0,0,0,3.07-2.15c.28-.4.6-.85,1-1.42A3.15,3.15,0,0,1,16.43,11.55Z"/></svg>